<svg xmlns="http://www.w3.org/2000/svg">
    <symbol id="menu" viewBox="0 0 32 32"><path d="M 5 8 h 22 M 5 16 h 22 M 27 24 H 5" stroke-width="3" stroke-linecap="round"/></symbol>

    <symbol id="cross" viewBox="0 0 32 32"><path d="M 7 24 L 25 8 M 25 24 L 7 8" stroke-width="3" stroke-linecap="round"/></symbol>

    <symbol id="phone" viewBox="0 0 473.806 473.806">
		<path d="M 374.5 293.5 c -9.7 -10.1 -21.4 -15.5 -33.8 -15.5 c -12.3 0 -24.1 5.3 -34.2 15.4 l -31.6 31.5 c -2.6 -1.4 -5.2 -2.7 -7.7 -4 c -3.6 -1.8 -7 -3.5 -9.9 -5.3 c -29.6 -18.8 -56.5 -43.3 -82.3 -75 c -12.5 -15.8 -20.9 -29.1 -27 -42.6 c 8.2 -7.5 15.8 -15.3 23.2 -22.8 c 2.8 -2.8 5.6 -5.7 8.4 -8.5 c 21 -21 21 -48.2 0 -69.2 l -27.3 -27.3 c -3.1 -3.1 -6.3 -6.3 -9.3 -9.5 c -6 -6.2 -12.3 -12.6 -18.8 -18.6 c -9.7 -9.6 -21.3 -14.7 -33.5 -14.7 s -24 5.1 -34 14.7 c -0.1 0.1 -0.1 0.1 -0.2 0.2 l -34 34.3 c -12.8 12.8 -20.1 28.4 -21.7 46.5 c -2.4 29.2 6.2 56.4 12.8 74.2 c 16.2 43.7 40.4 84.2 76.5 127.6 c 43.8 52.3 96.5 93.6 156.7 122.7 c 23 10.9 53.7 23.8 88 26 c 2.1 0.1 4.3 0.2 6.3 0.2 c 23.1 0 42.5 -8.3 57.7 -24.8 c 0.1 -0.2 0.3 -0.3 0.4 -0.5 c 5.2 -6.3 11.2 -12 17.5 -18.1 c 4.3 -4.1 8.7 -8.4 13 -12.9 c 9.9 -10.3 15.1 -22.3 15.1 -34.6 c 0 -12.4 -5.3 -24.3 -15.4 -34.3 L 374.5 293.5 z M 410.3 398.8 C 410.2 398.8 410.2 398.9 410.3 398.8 c -3.9 4.2 -7.9 8 -12.2 12.2 c -6.5 6.2 -13.1 12.7 -19.3 20 c -10.1 10.8 -22 15.9 -37.6 15.9 c -1.5 0 -3.1 0 -4.6 -0.1 c -29.7 -1.9 -57.3 -13.5 -78 -23.4 c -56.6 -27.4 -106.3 -66.3 -147.6 -115.6 c -34.1 -41.1 -56.9 -79.1 -72 -119.9 c -9.3 -24.9 -12.7 -44.3 -11.2 -62.6 c 1 -11.7 5.5 -21.4 13.8 -29.7 l 34.1 -34.1 c 4.9 -4.6 10.1 -7.1 15.2 -7.1 c 6.3 0 11.4 3.8 14.6 7 c 0.1 0.1 0.2 0.2 0.3 0.3 c 6.1 5.7 11.9 11.6 18 17.9 c 3.1 3.2 6.3 6.4 9.5 9.7 l 27.3 27.3 c 10.6 10.6 10.6 20.4 0 31 c -2.9 2.9 -5.7 5.8 -8.6 8.6 c -8.4 8.6 -16.4 16.6 -25.1 24.4 c -0.2 0.2 -0.4 0.3 -0.5 0.5 c -8.6 8.6 -7 17 -5.2 22.7 c 0.1 0.3 0.2 0.6 0.3 0.9 c 7.1 17.2 17.1 33.4 32.3 52.7 l 0.1 0.1 c 27.6 34 56.7 60.5 88.8 80.8 c 4.1 2.6 8.3 4.7 12.3 6.7 c 3.6 1.8 7 3.5 9.9 5.3 c 0.4 0.2 0.8 0.5 1.2 0.7 c 3.4 1.7 6.6 2.5 9.9 2.5 c 8.3 0 13.5 -5.2 15.2 -6.9 l 34.2 -34.2 c 3.4 -3.4 8.8 -7.5 15.1 -7.5 c 6.2 0 11.3 3.9 14.4 7.3 c 0.1 0.1 0.1 0.1 0.2 0.2 l 55.1 55.1 C 420.5 377.7 420.5 388.2 410.3 398.8 z"/>
		<path d="M 256.1 112.7 c 26.2 4.4 50 16.8 69 35.8 s 31.3 42.8 35.8 69 c 1.1 6.6 6.8 11.2 13.3 11.2 c 0.8 0 1.5 -0.1 2.3 -0.2 c 7.4 -1.2 12.3 -8.2 11.1 -15.6 c -5.4 -31.7 -20.4 -60.6 -43.3 -83.5 s -51.8 -37.9 -83.5 -43.3 c -7.4 -1.2 -14.3 3.7 -15.6 11 S 248.7 111.5 256.1 112.7 z"/>
		<path d="M 473.3 209 c -8.9 -52.2 -33.5 -99.7 -71.3 -137.5 s -85.3 -62.4 -137.5 -71.3 c -7.3 -1.3 -14.2 3.7 -15.5 11 c -1.2 7.4 3.7 14.3 11.1 15.6 c 46.6 7.9 89.1 30 122.9 63.7 c 33.8 33.8 55.8 76.3 63.7 122.9 c 1.1 6.6 6.8 11.2 13.3 11.2 c 0.8 0 1.5 -0.1 2.3 -0.2 C 469.6 223.3 474.6 216.3 473.3 209 z"/>
	</symbol>
</svg>
